<svg width="12" height="12" viewBox="0 0 12 12" fill="none" xmlns="http://www.w3.org/2000/svg">
<path d="M6 1C8.76142 1 11 3.23858 11 6C11 8.76142 8.76142 11 6 11C3.23858 11 1 8.76142 1 6C1 3.23858 3.23858 1 6 1ZM8.94141 3.63184C8.69732 3.38784 8.30167 3.38779 8.05762 3.63184L5.0625 6.62695L3.94141 5.50684C3.69732 5.26284 3.30167 5.26279 3.05762 5.50684C2.81392 5.75091 2.81374 6.14666 3.05762 6.39062L4.62012 7.95312C4.86408 8.19708 5.2598 8.19685 5.50391 7.95312L8.94141 4.51562C9.18548 4.27155 9.18548 3.87591 8.94141 3.63184Z" fill="#204BB3"/>
</svg>
