<svg width="24" height="24" viewBox="0 0 24 24" fill="none" xmlns="http://www.w3.org/2000/svg">
<rect width="24" height="24" rx="4" fill="#204BB3"/>
<g clip-path="url(#clip0_2422_22472)">
<path d="M10.8711 4.81934C12.5127 4.56083 14.1933 4.87358 15.6328 5.7041C15.9197 5.86976 16.0191 6.23649 15.8535 6.52344C15.6879 6.81038 15.3202 6.90861 15.0332 6.74316C13.8314 6.0498 12.4282 5.78903 11.0576 6.00488C9.68691 6.22083 8.43145 6.90028 7.50098 7.92969C6.57049 8.95915 6.02111 10.2766 5.94434 11.6621C5.86759 13.0476 6.26806 14.418 7.0791 15.5439C7.89015 16.6697 9.06302 17.4836 10.4014 17.8496C11.7397 18.2155 13.1635 18.1121 14.4346 17.5557C15.7056 16.9992 16.7477 16.0235 17.3867 14.792C18.0257 13.5603 18.2233 12.1458 17.9463 10.7861C17.8803 10.4616 18.0896 10.1454 18.4141 10.0791C18.7387 10.0131 19.0559 10.2222 19.1221 10.5469C19.4539 12.1753 19.2174 13.8685 18.4521 15.3438C17.6868 16.819 16.4384 17.9877 14.916 18.6543C13.3935 19.3208 11.6881 19.4452 10.085 19.0068C8.48182 18.5684 7.07695 17.5936 6.10547 16.2451C5.13399 14.8965 4.65416 13.2553 4.74609 11.5957C4.83805 9.93616 5.49588 8.35807 6.61035 7.125C7.72489 5.89194 9.22923 5.07801 10.8711 4.81934ZM18.2441 6.24316C18.4785 6.00885 18.8585 6.00885 19.0928 6.24316C19.3268 6.47744 19.3269 6.85656 19.0928 7.09082L12.4258 13.7578C12.1915 13.9915 11.8123 13.9918 11.5781 13.7578L9.57812 11.7578C9.34393 11.5236 9.34417 11.1435 9.57812 10.9092C9.81236 10.6753 10.1915 10.6753 10.4258 10.9092L12.002 12.4854L18.2441 6.24316Z" fill="white"/>
</g>
<defs>
<clipPath id="clip0_2422_22472">
<rect width="16" height="16" fill="white" transform="translate(4 4)"/>
</clipPath>
</defs>
</svg>
